<?xml version="1.0" encoding="UTF-8"?>
<svg width="200px" height="192px" viewBox="0 0 200 192" version="1.1" xmlns="http://www.w3.org/2000/svg" xmlns:xlink="http://www.w3.org/1999/xlink">
    <title>recursive-server-svgrepo-com</title>
    <defs>
        <linearGradient x1="50%" y1="100%" x2="50%" y2="0%" id="linearGradient-1">
            <stop stop-color="#FF771E" offset="0%"></stop>
            <stop stop-color="#FF7373" offset="100%"></stop>
        </linearGradient>
    </defs>
    <g id="页面-1" stroke="none" stroke-width="1" fill="none" fill-rule="evenodd">
        <g id="logo1" transform="translate(0.000000, -2.874598)">
            <g id="recursive-server-svgrepo-com" transform="translate(0.000000, 2.874598)">
                <polygon id="路径" fill="#FFFFFF" fill-rule="nonzero" points="82.3665595 1.89478063e-14 0 48.488746 0.823151125 144.051447 83.9871383 191.125402 166.353698 142.636656 165.530547 47.073955"></polygon>
                <polygon id="路径" fill="#FFAD64" fill-rule="nonzero" points="130.212219 38.9196141 125.041801 35.9871383 53.0932476 78.3536977 53.8135048 162.237942 58.9839228 165.144695 58.2636656 81.2861736"></polygon>
                <path d="M160.257235,90.9324759 L158.045016,92.2700965 C156.836013,93.0160772 156.450161,94.585209 157.170418,95.7942122 C157.659164,96.5916399 158.508039,97.0289389 159.382637,97.0289389 C159.845659,97.0289389 160.282958,96.9003215 160.720257,96.6688103 L162.932476,95.3311897 C164.141479,94.585209 164.527331,93.0160772 163.807074,91.807074 C163.061093,90.5980707 161.491961,90.2122186 160.257235,90.9324759 L160.257235,90.9324759 Z" id="路径" fill="#FFAD64" fill-rule="nonzero"></path>
                <path d="M132.424437,102.302251 C132.012862,102.07074 131.549839,101.967846 131.086817,101.967846 C129.826367,101.967846 128.540193,102.636656 127.742765,103.151125 C122.44373,106.495177 117.967846,115.369775 117.967846,122.495177 C117.967846,125.633441 118.842444,128 120.308682,128.797428 C121.85209,129.646302 123.909968,128.643087 124.990354,127.948553 C130.289389,124.604502 134.765273,115.729904 134.765273,108.604502 C134.765273,105.466238 133.890675,103.125402 132.424437,102.302251 L132.424437,102.302251 Z M129.877814,115.266881 L127.665595,116.604502 C127.254019,116.861736 126.790997,116.96463 126.327974,116.96463 C125.453376,116.96463 124.604502,116.527331 124.115756,115.729904 C123.369775,114.5209 123.78135,112.926045 124.990354,112.205788 L127.202572,110.868167 C128.411576,110.122186 130.006431,110.533762 130.726688,111.742765 C131.498392,112.951768 131.11254,114.546624 129.877814,115.266881 Z" id="形状" fill="#E4E4E4" fill-rule="nonzero"></path>
                <path d="M127.228296,110.868167 L125.016077,112.205788 C123.807074,112.951768 123.421222,114.5209 124.141479,115.729904 C124.630225,116.527331 125.4791,116.96463 126.353698,116.96463 C126.81672,116.96463 127.254019,116.836013 127.691318,116.604502 L129.903537,115.266881 C131.11254,114.5209 131.498392,112.951768 130.778135,111.742765 C130.032154,110.533762 128.437299,110.122186 127.228296,110.868167 L127.228296,110.868167 Z" id="路径" fill="#E6E6E6" fill-rule="nonzero"></path>
                <path d="M82.3665595,0 L0,48.488746 L0.823151125,144.051447 L83.9871383,191.125402 L166.327974,142.636656 L165.504823,47.073955 L82.3665595,0 L82.3665595,0 Z M11.0610932,138.032154 L10.340836,54.3536977 L82.4437299,11.8842444 L100.758842,22.2508039 L28.6559486,64.7202572 L29.3762058,148.398714 L11.0610932,138.032154 L11.0610932,138.032154 Z M78.6623794,176.282958 L58.9839228,165.144695 L53.8135048,162.237942 L34.5466238,151.33119 L33.8263666,67.6527331 L105.954984,25.1832797 L125.041801,35.9871383 L130.212219,38.9196141 L150.22508,50.2379421 L77.9421222,92.8102894 L78.6623794,176.282958 L78.6623794,176.282958 Z M88.9517685,176.282958 L88.2829582,98.6495177 L155.344051,59.1639871 L156.012862,136.771704 L88.9517685,176.282958 L88.9517685,176.282958 Z M162.932476,95.3311897 L160.720257,96.6688103 C160.308682,96.926045 159.845659,97.0289389 159.382637,97.0289389 C158.508039,97.0289389 157.659164,96.5916399 157.170418,95.7942122 C156.424437,94.585209 156.836013,92.9903537 158.045016,92.2700965 L160.257235,90.9324759 C161.466238,90.1864952 163.061093,90.5980707 163.78135,91.807074 C164.527331,93.0160772 164.141479,94.6109325 162.932476,95.3311897 L162.932476,95.3311897 Z" id="形状" fill="url(#linearGradient-1)"></path>
                <path d="M149.247588,97.5691318 L147.03537,98.9067524 C145.826367,99.6527331 145.440514,101.221865 146.160772,102.430868 C146.649518,103.228296 147.498392,103.665595 148.37299,103.665595 C148.836013,103.665595 149.273312,103.536977 149.710611,103.305466 L151.92283,101.967846 C153.131833,101.221865 153.517685,99.6527331 152.797428,98.4437299 C152.051447,97.2347267 150.482315,96.8488746 149.247588,97.5691318 L149.247588,97.5691318 Z M180.938907,75.755627 C179.524116,75.755627 178.366559,76.9131833 178.366559,78.3279743 L178.366559,80.9003215 C178.366559,82.3151125 179.524116,83.4726688 180.938907,83.4726688 C182.353698,83.4726688 183.511254,82.3151125 183.511254,80.9003215 L183.511254,78.3279743 C183.511254,76.9131833 182.353698,75.755627 180.938907,75.755627 Z M183.511254,65.4662379 C183.511254,64.0514469 182.353698,62.8938907 180.938907,62.8938907 C179.524116,62.8938907 178.366559,64.0514469 178.366559,65.4662379 L178.366559,68.0385852 C178.366559,69.4533762 179.524116,70.6109325 180.938907,70.6109325 C182.353698,70.6109325 183.511254,69.4533762 183.511254,68.0385852 L183.511254,65.4662379 Z M183.511254,52.6045016 C183.511254,51.1897106 182.353698,50.0321543 180.938907,50.0321543 C179.524116,50.0321543 178.366559,51.1897106 178.366559,52.6045016 L178.366559,55.1768489 C178.366559,56.5916399 179.524116,57.7491961 180.938907,57.7491961 C182.353698,57.7491961 183.511254,56.5916399 183.511254,55.1768489 L183.511254,52.6045016 Z M183.511254,39.7427653 C183.511254,38.3279743 182.353698,37.170418 180.938907,37.170418 C179.524116,37.170418 178.366559,38.3279743 178.366559,39.7427653 L178.366559,42.3151125 C178.366559,43.7299035 179.524116,44.8874598 180.938907,44.8874598 C182.353698,44.8874598 183.511254,43.7299035 183.511254,42.3151125 L183.511254,39.7427653 Z M174.81672,85.170418 C174.07074,83.9614148 172.501608,83.5498392 171.292605,84.2958199 L169.080386,85.6334405 C167.871383,86.3794212 167.485531,87.9485531 168.205788,89.1575563 C168.694534,89.9549839 169.543408,90.392283 170.418006,90.392283 C170.881029,90.392283 171.318328,90.2636656 171.755627,90.0321543 L173.967846,88.6945338 C175.151125,87.9485531 175.536977,86.3794212 174.81672,85.170418 L174.81672,85.170418 Z M139.292605,103.871383 C138.5209,101.093248 137.003215,98.9581994 134.893891,97.8006431 C132.012862,96.2315113 128.514469,96.5659164 124.990354,98.8038585 C118.173633,103.125402 112.823151,113.517685 112.823151,122.495177 C112.823151,127.614148 114.649518,131.549839 117.839228,133.299035 C119.022508,133.942122 120.308682,134.276527 121.672026,134.276527 C123.601286,134.276527 125.684887,133.607717 127.768489,132.29582 C134.430868,128.07717 139.70418,118.045016 139.935691,109.221865 L140.938907,108.604502 C142.14791,107.858521 142.533762,106.289389 141.813505,105.080386 C141.247588,104.205788 140.244373,103.768489 139.292605,103.871383 L139.292605,103.871383 Z M124.990354,127.974277 C123.909968,128.66881 121.85209,129.672026 120.308682,128.823151 C118.842444,128.025723 117.967846,125.659164 117.967846,122.5209 C117.967846,115.395498 122.44373,106.5209 127.742765,103.176849 C128.540193,102.688103 129.826367,101.993569 131.086817,101.993569 C131.549839,101.993569 132.012862,102.096463 132.424437,102.327974 C133.890675,103.125402 134.765273,105.491961 134.765273,108.630225 C134.765273,115.755627 130.289389,124.604502 124.990354,127.974277 L124.990354,127.974277 Z" id="形状" fill="#FF763B" fill-rule="nonzero"></path>
                <path d="M197.401929,47.6913183 C195.987138,47.6913183 194.829582,48.8488746 194.829582,50.2636656 L194.829582,90.4951768 L173.813505,103.176849 C172.604502,103.92283 172.21865,105.491961 172.938907,106.700965 C173.427653,107.498392 174.276527,107.935691 175.151125,107.935691 C175.614148,107.935691 176.051447,107.807074 176.488746,107.575563 L200,93.4019293 L200,50.2636656 C199.974277,48.8488746 198.81672,47.6913183 197.401929,47.6913183 Z M178.392283,26.5723473 C178.366559,26.6752412 178.366559,26.778135 178.366559,26.9067524 L178.366559,29.4790997 C178.366559,30.8938907 179.524116,32.0514469 180.938907,32.0514469 C182.353698,32.0514469 183.511254,30.8938907 183.511254,29.4790997 L183.511254,26.9067524 C183.511254,26.8038585 183.511254,26.6752412 183.485531,26.5723473 C189.504823,25.3890675 194.032154,20.0643087 194.032154,13.7106109 C194.032154,6.45659164 188.167203,0.591639871 180.913183,0.591639871 C173.659164,0.591639871 167.794212,6.45659164 167.794212,13.7106109 C167.794212,20.0643087 172.347267,25.3890675 178.392283,26.5723473 L178.392283,26.5723473 Z" id="形状" fill="#FF763B" fill-rule="nonzero"></path>
            </g>
        </g>
    </g>
</svg>